<svg width="122" height="70" viewBox="0 0 122 70" fill="none" xmlns="http://www.w3.org/2000/svg">
<path d="M22.1194 20.5254L4.49826 2.80795C2.71001 1.01007 0.28421 -5.50259e-06 -2.24523 -5.50259e-06H-17.5474C-20.0805 -0.00283839 -22.5106 1.00747 -24.3014 2.80795L-33.1133 11.6667L-41.949 20.5254C-43.7377 22.3256 -44.7409 24.7666 -44.7377 27.3106V42.6894C-44.7409 45.2334 -43.7377 47.6744 -41.949 49.4746L-24.3251 67.192C-22.5358 68.9898 -20.1092 70 -17.579 70H-2.27689C0.258774 70.0041 2.6918 68.9937 4.48506 67.192L22.1274 49.4746C23.9148 47.6738 24.917 45.233 24.9134 42.6894V27.3106C24.9149 24.7659 23.9098 22.3249 22.1194 20.5254Z" fill="black"/>
<path d="M-9.94403 16.4182C-20.1552 16.4183 -28.433 24.7376 -28.433 35C-28.433 45.2625 -20.1551 53.5818 -9.94379 53.5818C0.267506 53.5818 8.5454 45.2625 8.5454 35.0005C8.5442 24.7383 0.266928 16.4195 -9.94403 16.4182Z" fill="black" stroke="black" stroke-width="31"/>
<path d="M43.6189 23.2299H36.5852V46.6295H43.5661C51.0246 46.6295 55.7155 42.1511 55.7155 34.9284C55.7155 27.7057 51.0932 23.2299 43.6189 23.2299ZM43.5661 43.4769H40.3659V26.3852H43.5318C48.7609 26.3852 51.7106 29.567 51.7106 34.9284C51.7106 40.2898 48.8084 43.4849 43.5661 43.4849V43.4769Z" fill="black"/>
<path d="M64.3031 29.3311C59.9499 29.3311 57.3196 31.7386 57.1797 35.0318H60.8575C60.9604 33.1307 62.1767 32.078 64.2372 32.078C66.3742 32.078 67.667 33.2659 67.667 35.525V36.0367L63.3903 36.4663C59.6492 36.8746 56.6099 38.1633 56.6099 41.6527C56.6099 44.7443 59.0714 46.9557 62.5962 46.9557C65.1263 46.9557 67.0179 45.6299 67.7276 43.2886H67.8253V46.6163H71.3711V36.217C71.3236 31.6405 68.5957 29.3311 64.3031 29.3311ZM67.6459 39.2159C67.6459 42.4402 66.1288 44.2379 63.4958 44.2379C61.8733 44.2379 60.4591 43.3205 60.4591 41.7269C60.4591 40.1333 61.7414 39.2849 63.9654 39.0489L67.6459 38.6193V39.2159Z" fill="black"/>
<path d="M81.7661 29.3311C79.3046 29.3311 77.5448 30.6223 76.8404 32.9928H76.7744V29.6705H73.1969V46.6402H76.8747V36.453C76.8747 33.6716 77.9881 32.1125 80.2491 32.1125C82.5101 32.1125 83.634 33.539 83.634 36.689V46.6295H87.3012V35.6072C87.3012 31.8765 85.4808 29.3311 81.7661 29.3311Z" fill="black"/>
<path d="M97.0365 44.2193C94.2372 44.2193 92.6833 41.7083 92.6833 38.15C92.6833 34.5917 94.1343 32.078 96.8676 32.078C98.8595 32.078 100.239 33.3322 100.646 35.525H104.339C103.698 31.5239 100.73 29.3523 96.7779 29.3523C91.8522 29.3523 88.7812 33.5947 88.7812 38.1712C88.7812 42.8511 91.9472 46.9902 96.9072 46.9902C100.865 46.9902 103.859 44.7523 104.5 40.7511H100.759C100.411 42.8989 98.9915 44.2193 97.0365 44.2193Z" fill="black"/>
<path d="M113.523 29.3311C108.495 29.3311 105.624 33.4701 105.624 38.15C105.624 42.8299 108.563 46.9689 113.587 46.9689C117.705 46.9689 120.338 44.7311 121.045 41.3822H117.367C116.961 42.7398 116.016 44.2326 113.827 44.2326C111.26 44.2326 109.473 42.4349 109.302 39.3511H121.362C121.873 33.4356 118.547 29.3311 113.523 29.3311ZM109.336 36.5909C109.571 33.8439 111.046 32.0833 113.523 32.0833C116.001 32.0833 117.436 33.8492 117.671 36.5909H109.336Z" fill="black"/>
</svg>
